<svg width="1920" height="522" viewBox="0 0 1920 522" fill="none" xmlns="http://www.w3.org/2000/svg">
<path d="M0 148.447L40 107.005C80 64.7861 160 -16.9287 240 3.11091C320 23.9287 400 148.447 480 158.758C560 169.848 640 64.7861 720 55.0582C800 45.3302 880 127.045 960 127.629C1040 127.045 1120 45.3302 1200 23.9287C1280 2.52723 1360 45.3302 1440 44.7466C1520 45.3302 1600 2.52723 1680 3.11091C1760 2.52723 1840 45.3302 1880 65.3698L1920 86.1876V522H1880C1840 522 1760 522 1680 522C1600 522 1520 522 1440 522C1360 522 1280 522 1200 522C1120 522 1040 522 960 522C880 522 800 522 720 522C640 522 560 522 480 522C400 522 320 522 240 522C160 522 80 522 40 522H0V148.447Z" fill="#046997" fill-opacity="0.9"/>
</svg>
