<svg width="697" height="729" viewBox="0 0 697 729" fill="none" xmlns="http://www.w3.org/2000/svg">
<path d="M0 71.653L14.5208 63.6667C29.0417 55.9789 58.0833 39.5584 87.125 35.8265C116.167 32.0946 145.208 39.5584 174.25 55.755C203.292 71.653 232.333 95.5373 261.375 115.466C290.417 135.096 319.458 151.516 348.5 143.306C377.542 135.096 406.583 103.748 435.625 103.524C464.667 103.748 493.708 135.096 522.75 147.262C551.792 158.98 580.833 151.516 609.875 123.378C638.917 95.5374 667.958 47.7687 682.479 23.8843L697 0V728.5H652C637.479 728.5 587.542 728.5 558.5 728.5C529.458 728.5 517.042 728.5 488 728.5C458.958 728.5 464.667 728.5 435.625 728.5C406.583 728.5 405.542 728.5 376.5 728.5C347.458 728.5 313.542 728.5 284.5 728.5C255.458 728.5 232.042 728.5 203 728.5C173.958 728.5 139.542 728.5 110.5 728.5C81.4583 728.5 69.5208 728.5 55 728.5H0V71.653Z" fill="#1065A4"/>
</svg>
